<?xml version="1.0" encoding="UTF-8" standalone="no"?>
<svg
   width="512"
   height="512"
   xml:space="preserve"
   overflow="hidden"
   version="1.1"
   id="svg6"
   sodipodi:docname="workflow.svg"
   inkscape:version="1.4 (e7c3feb1, 2024-10-09)"
   xmlns:inkscape="http://www.inkscape.org/namespaces/inkscape"
   xmlns:sodipodi="http://sodipodi.sourceforge.net/DTD/sodipodi-0.dtd"
   xmlns="http://www.w3.org/2000/svg"
   xmlns:svg="http://www.w3.org/2000/svg"><sodipodi:namedview
     id="namedview6"
     pagecolor="#ffffff"
     bordercolor="#000000"
     borderopacity="0.25"
     inkscape:showpageshadow="2"
     inkscape:pageopacity="0.0"
     inkscape:pagecheckerboard="0"
     inkscape:deskcolor="#d1d1d1"
     inkscape:zoom="1.2235835"
     inkscape:cx="303.20776"
     inkscape:cy="269.29099"
     inkscape:window-width="1920"
     inkscape:window-height="948"
     inkscape:window-x="1680"
     inkscape:window-y="25"
     inkscape:window-maximized="1"
     inkscape:current-layer="svg6" /><defs
     id="defs3"><radialGradient
       cx="1799706"
       cy="1799706"
       r="2545168"
       fx="1799706"
       fy="1799706"
       gradientUnits="userSpaceOnUse"
       spreadMethod="pad"
       id="fill0"
       gradientTransform="matrix(3.60892e-4,0,0,3.60892e-4,1408,507)"><stop
         offset="0"
         stop-color="#F6C6AD"
         stop-opacity="1"
         id="stop1" /><stop
         offset="0.46"
         stop-color="#EA783C"
         stop-opacity="1"
         id="stop2" /><stop
         offset="1"
         stop-color="#994010"
         stop-opacity="1"
         id="stop3" /></radialGradient></defs><g
     transform="matrix(0.39286599,0,0,0.39223683,-552.15531,-197.49862)"
     id="g6"><g
       id="g5"><path
         d="m 1408,1156.5 c 0,-358.709 290.79,-649.5 649.5,-649.5 358.71,0 649.5,290.791 649.5,649.5 0,358.71 -290.79,649.5 -649.5,649.5 -358.71,0 -649.5,-290.79 -649.5,-649.5 z"
         fill="url(#fill0)"
         fill-rule="evenodd"
         id="path3"
         style="fill:url(#fill0)" /><path
         d="m 1544.49,1400.22 29.32,-0.52 -1.71,0.06 28.05,-1.34 -1.82,0.12 26.81,-2.13 -1.93,0.19 25.62,-2.91 -2.04,0.27 24.46,-3.67 -2.15,0.36 23.34,-4.41 -2.24,0.47 22.26,-5.14 -2.33,0.59 21.21,-5.85 -2.41,0.72 20.22,-6.53 -2.47,0.86 19.25,-7.21 -2.5,1 18.32,-7.86 -2.51,1.15 17.43,-8.5 -2.5,1.29 16.59,-9.12 -2.45,1.43 15.77,-9.72 -2.38,1.55 15,-10.3 -2.28,1.65 14.26,-10.87 -2.16,1.73 13.57,-11.42 -2.02,1.79 12.91,-11.95 -1.87,1.81 12.29,-12.46 -1.71,1.81 11.72,-12.95 -1.56,1.78 11.18,-13.43 -1.39,1.74 10.67,-13.89 -1.24,1.67 10.21,-14.34 -1.09,1.58 9.78,-14.75 -0.95,1.48 9.39,-15.17 -0.82,1.37 9.04,-15.55 -1.01,1.81 17.19,-32.19 -1.01,1.99 16.25,-33.53 -0.69,1.48 15.71,-34.91 8.46,-18.47 9.38,-18.66 9.99,-18.12 10.6,-17.56 11.22,-17 11.86,-16.407 12.49,-15.812 13.13,-15.198 13.77,-14.569 14.41,-13.925 15.04,-13.266 15.67,-12.595 16.29,-11.913 16.89,-11.224 17.49,-10.529 18.08,-9.831 18.66,-9.133 19.23,-8.438 19.8,-7.746 20.35,-7.06 20.91,-6.381 21.47,-5.71 3.13,-0.718 25.6,111.687 -2.16,0.497 1.92,-0.478 -19.5,5.188 1.99,-0.569 -18.88,5.763 2.05,-0.669 -18.27,6.339 2.1,-0.775 -17.67,6.914 2.14,-0.888 -17.08,7.491 2.17,-1.005 -16.48,8.068 2.18,-1.126 -15.9,8.645 2.18,-1.246 -15.33,9.223 2.16,-1.366 -14.75,9.801 2.12,-1.48 -14.19,10.381 2.07,-1.589 -13.63,10.959 2,-1.69 -13.08,11.54 1.92,-1.77 -12.54,12.12 1.82,-1.85 -12,12.7 1.72,-1.9 -11.47,13.28 1.6,-1.94 -10.94,13.86 1.48,-1.97 -10.43,14.44 1.36,-1.98 -9.92,15.02 1.25,-1.97 -9.42,15.61 1.13,-1.95 -8.92,16.18 1.01,-1.92 -8.43,16.77 0.9,-1.88 -7.95,17.35 0.16,-0.35 -15.96,35.47 -17.1,35.28 -18.21,34.1 -9.96,17.14 -10.28,16.59 -10.79,16.29 -11.37,15.96 -11.98,15.6 -12.64,15.2 -13.34,14.76 -14.09,14.27 -14.86,13.76 -15.67,13.18 -16.49,12.56 -17.33,11.91 -18.19,11.21 -19.06,10.48 -19.95,9.73 -20.83,8.94 -21.73,8.14 -22.65,7.33 -23.59,6.5 -24.55,5.66 -25.54,4.83 -26.55,3.98 -27.59,3.14 -28.69,2.27 -29.81,1.42 -30.17,0.53 z m 797.7,-523.291 -129.02,-161.318 357.33,141.491 -327.59,200.968 z"
         fill="#ffffff"
         fill-rule="nonzero"
         fill-opacity="1"
         id="path4" /><path
         d="m -1.01043,543.717 29.31833,-0.517 -1.7072,0.055 28.0455,-1.332 -1.817,0.116 26.8112,-2.129 -1.9277,0.186 25.6153,-2.908 -2.038,0.268 24.458,-3.669 -2.143,0.363 23.339,-4.413 -2.244,0.471 22.259,-5.138 -2.333,0.59 21.217,-5.847 -2.409,0.721 20.213,-6.537 -2.466,0.86 19.249,-7.209 -2.502,1.005 18.322,-7.864 -2.513,1.151 17.434,-8.501 -2.497,1.294 16.584,-9.12 -2.453,1.429 15.774,-9.722 -2.381,1.55 15.001,-10.305 -2.283,1.653 14.266,-10.871 -2.162,1.732 13.571,-11.419 -2.024,1.786 12.914,-11.949 -1.873,1.813 12.295,-12.461 -1.713,1.813 11.715,-12.956 -1.55,1.788 11.173,-13.434 -1.39,1.739 7.566,-9.85 90.873,69.795 -8.244,10.733 -12.642,15.2 -13.346,14.759 -14.087,14.278 -14.862,13.752 -15.664,13.18 -16.49,12.566 -17.334,11.908 -18.192,11.212 -19.061,10.482 -19.94,9.723 -20.832,8.942 -21.734,8.14 -22.653,7.326 -23.589,6.501 -24.549,5.667 -25.534,4.828 -26.55,3.983 -27.5987,3.133 -28.6842,2.278 -29.8084,1.415 -30.17227,0.532 z M 540.529,99.3414 546.472,93.0535 560.88,79.129 575.922,65.863 591.59,53.2681 607.875,41.3548 624.769,30.131 l 17.492,-10.5289 18.081,-9.83124 18.66,-9.133355 19.231,-8.437515 19.795,-7.74599 20.355,-7.06 20.911,-6.3811 21.466,-5.7099 3.134,-0.7183 25.597,111.6875 -2.165,0.4963 1.928,-0.4773 -19.503,5.1879 1.994,-0.5693 -18.886,5.7633 2.052,-0.669 -18.275,6.3389 2.102,-0.7756 -17.671,6.915 2.141,-0.8885 -17.074,7.4911 2.168,-1.005 -16.484,8.068 2.181,-1.126 -15.9,8.645 2.178,-1.246 -15.323,9.223 2.159,-1.366 -14.753,9.801 2.122,-1.48 -14.188,10.379 2.069,-1.587 -13.631,10.958 2,-1.685 -13.081,11.537 1.918,-1.771 -12.538,12.117 1.823,-1.843 -5.053,5.346 z M 796.693,20.4285 667.669,-140.889 1025,0.602152 697.409,201.572 Z"
         fill="#ffffff"
         fill-rule="nonzero"
         fill-opacity="1"
         transform="matrix(1,0,0,-1,1545.5,1457.5)"
         id="path5" /></g></g></svg>
